<svg id="Capa_1" enable-background="new 0 0 512 512" height="300" viewBox="0 0 512 512" width="300" xmlns="http://www.w3.org/2000/svg" version="1.1" xmlns:xlink="http://www.w3.org/1999/xlink" xmlns:svgjs="http://svgjs.dev/svgjs"><g width="100%" height="100%" transform="matrix(1,0,0,1,0,0)"><g><path d="m331.25 256c0-36.358-25.919-66.772-60.25-73.745v-107.005h-30v107.005c-34.331 6.972-60.25 37.387-60.25 73.745s25.919 66.772 60.25 73.745v107.005h30v-107.005c34.331-6.973 60.25-37.387 60.25-73.745zm-60.25 15h-30v-30h30z" fill="#ffffff" fill-opacity="1" data-original-color="#000000ff" stroke="none" stroke-opacity="1"/><path d="m181.4 181.4-21.213-21.213c-52.832 52.832-52.832 138.794 0 191.626l21.213-21.213c-41.134-41.135-41.134-108.065 0-149.2z" fill="#ffffff" fill-opacity="1" data-original-color="#000000ff" stroke="none" stroke-opacity="1"/><path d="m351.812 160.187-21.212 21.213c41.135 41.135 41.135 108.065 0 149.2l21.213 21.213c52.832-52.832 52.832-138.794-.001-191.626z" fill="#ffffff" fill-opacity="1" data-original-color="#000000ff" stroke="none" stroke-opacity="1"/><path d="m138.797 138.797-21.213-21.213c-76.322 76.323-76.322 200.509 0 276.832l21.213-21.213c-64.625-64.626-64.625-169.78 0-234.406z" fill="#ffffff" fill-opacity="1" data-original-color="#000000ff" stroke="none" stroke-opacity="1"/><path d="m394.416 117.584-21.213 21.213c64.625 64.626 64.625 169.78 0 234.406l21.213 21.213c76.322-76.323 76.322-200.509 0-276.832z" fill="#ffffff" fill-opacity="1" data-original-color="#000000ff" stroke="none" stroke-opacity="1"/><path d="m96.193 96.194-21.213-21.213c-48.352 48.352-74.98 112.639-74.98 181.019s26.628 132.667 74.98 181.019l21.213-21.213c-42.685-42.686-66.193-99.439-66.193-159.806s23.508-117.12 66.193-159.806z" fill="#ffffff" fill-opacity="1" data-original-color="#000000ff" stroke="none" stroke-opacity="1"/><path d="m437.02 74.981-21.213 21.213c42.685 42.686 66.193 99.439 66.193 159.806s-23.508 117.12-66.193 159.806l21.213 21.213c48.352-48.352 74.98-112.639 74.98-181.019s-26.628-132.667-74.98-181.019z" fill="#ffffff" fill-opacity="1" data-original-color="#000000ff" stroke="none" stroke-opacity="1"/></g></g></svg>