{
  "asset": {
    "generator": "OpenSceneGraph 3.5.6",
    "version": "2.0"
  },
  "accessors": [
    {
      "type": "VEC3",
      "componentType": 5126,
      "count": 5123,
      "bufferView": 0,
      "byteOffset": 0
    },
    {
      "type": "VEC4",
      "componentType": 5126,
      "count": 5123,
      "bufferView": 0,
      "byteOffset": 12
    },
    {
      "type": "VEC2",
      "componentType": 5126,
      "count": 5123,
      "bufferView": 0,
      "byteOffset": 28
    },
    {
      "type": "VEC3",
      "componentType": 5126,
      "count": 5123,
      "max": [
        -15.38430118560791,
        1.4225621223449707,
        1.306449055671692
      ],
      "min": [
        -17.54789924621582,
        -1.4220099449157715,
        -1.3043403625488281
      ],
      "bufferView": 0,
      "byteOffset": 36
    },
    {
      "type": "SCALAR",
      "componentType": 5123,
      "count": 11127,
      "bufferView": 1,
      "byteOffset": 0
    },
    {
      "type": "SCALAR",
      "componentType": 5123,
      "count": 267,
      "bufferView": 1,
      "byteOffset": 22256
    },
    {
      "type": "SCALAR",
      "componentType": 5123,
      "count": 97800,
      "bufferView": 1,
      "byteOffset": 22792
    },
    {
      "type": "SCALAR",
      "componentType": 5123,
      "count": 510,
      "bufferView": 1,
      "byteOffset": 218392
    },
    {
      "type": "SCALAR",
      "componentType": 5123,
      "count": 8277,
      "bufferView": 1,
      "byteOffset": 219412
    },
    {
      "type": "SCALAR",
      "componentType": 5123,
      "count": 195,
      "bufferView": 1,
      "byteOffset": 235968
    },
    {
      "type": "SCALAR",
      "componentType": 5123,
      "count": 72,
      "bufferView": 1,
      "byteOffset": 236360
    },
    {
      "type": "VEC3",
      "componentType": 5126,
      "count": 5123,
      "bufferView": 2,
      "byteOffset": 0
    },
    {
      "type": "VEC4",
      "componentType": 5126,
      "count": 5123,
      "bufferView": 2,
      "byteOffset": 12
    },
    {
      "type": "VEC2",
      "componentType": 5126,
      "count": 5123,
      "bufferView": 2,
      "byteOffset": 28
    },
    {
      "type": "VEC3",
      "componentType": 5126,
      "count": 5123,
      "max": [
        -15.38430118560791,
        1.4225621223449707,
        1.306449055671692
      ],
      "min": [
        -17.54789924621582,
        -1.4220099449157715,
        -1.3043403625488281
      ],
      "bufferView": 2,
      "byteOffset": 36
    },
    {
      "type": "VEC3",
      "componentType": 5126,
      "count": 29977,
      "bufferView": 3,
      "byteOffset": 0
    },
    {
      "type": "VEC4",
      "componentType": 5126,
      "count": 29977,
      "bufferView": 3,
      "byteOffset": 12
    },
    {
      "type": "VEC2",
      "componentType": 5126,
      "count": 29977,
      "bufferView": 3,
      "byteOffset": 28
    },
    {
      "type": "VEC3",
      "componentType": 5126,
      "count": 29977,
      "max": [
        -15.49722957611084,
        1.4384485483169556,
        1.4804699420928955
      ],
      "min": [
        -19.45050048828125,
        -1.437809944152832,
        -1.4784300327301025
      ],
      "bufferView": 3,
      "byteOffset": 36
    },
    {
      "type": "VEC3",
      "componentType": 5126,
      "count": 29977,
      "bufferView": 4,
      "byteOffset": 0
    },
    {
      "type": "VEC4",
      "componentType": 5126,
      "count": 29977,
      "bufferView": 4,
      "byteOffset": 12
    },
    {
      "type": "VEC2",
      "componentType": 5126,
      "count": 29977,
      "bufferView": 4,
      "byteOffset": 28
    },
    {
      "type": "VEC3",
      "componentType": 5126,
      "count": 29977,
      "max": [
        -15.49722957611084,
        1.4384485483169556,
        1.4804699420928955
      ],
      "min": [
        -19.45050048828125,
        -1.437809944152832,
        -1.4784300327301025
      ],
      "bufferView": 4,
      "byteOffset": 36
    },
    {
      "type": "VEC3",
      "componentType": 5126,
      "count": 3784,
      "bufferView": 5,
      "byteOffset": 0
    },
    {
      "type": "VEC4",
      "componentType": 5126,
      "count": 3784,
      "bufferView": 5,
      "byteOffset": 12
    },
    {
      "type": "VEC2",
      "componentType": 5126,
      "count": 3784,
      "bufferView": 5,
      "byteOffset": 28
    },
    {
      "type": "VEC3",
      "componentType": 5126,
      "count": 3784,
      "max": [
        -18.78176498413086,
        3.87801194190979,
        2.4466357231140137
      ],
      "min": [
        -18.864500045776367,
        -3.877379894256592,
        -2.4445600509643555
      ],
      "bufferView": 5,
      "byteOffset": 36
    },
    {
      "type": "VEC3",
      "componentType": 5126,
      "count": 3784,
      "bufferView": 6,
      "byteOffset": 0
    },
    {
      "type": "VEC4",
      "componentType": 5126,
      "count": 3784,
      "bufferView": 6,
      "byteOffset": 12
    },
    {
      "type": "VEC2",
      "componentType": 5126,
      "count": 3784,
      "bufferView": 6,
      "byteOffset": 28
    },
    {
      "type": "VEC3",
      "componentType": 5126,
      "count": 3784,
      "max": [
        -18.78176498413086,
        3.87801194190979,
        2.4466357231140137
      ],
      "min": [
        -18.864500045776367,
        -3.877379894256592,
        -2.4445600509643555
      ],
      "bufferView": 6,
      "byteOffset": 36
    },
    {
      "type": "VEC3",
      "componentType": 5126,
      "count": 48,
      "bufferView": 7,
      "byteOffset": 0
    },
    {
      "type": "VEC4",
      "componentType": 5126,
      "count": 48,
      "bufferView": 7,
      "byteOffset": 12
    },
    {
      "type": "VEC2",
      "componentType": 5126,
      "count": 48,
      "bufferView": 7,
      "byteOffset": 28
    },
    {
      "type": "VEC3",
      "componentType": 5126,
      "count": 48,
      "max": [
        -18.805553436279297,
        3.8583624362945557,
        2.4269285202026367
      ],
      "min": [
        -18.812599182128906,
        -3.8577399253845215,
        -2.4409806728363037
      ],
      "bufferView": 7,
      "byteOffset": 36
    }
  ],
  "bufferViews": [
    {
      "buffer": 0,
      "byteOffset": 0,
      "byteLength": 245904,
      "byteStride": 48,
      "target": 34962
    },
    {
      "buffer": 0,
      "byteOffset": 245904,
      "byteLength": 236504,
      "target": 34963
    },
    {
      "buffer": 0,
      "byteOffset": 482408,
      "byteLength": 245904,
      "byteStride": 48,
      "target": 34962
    },
    {
      "buffer": 0,
      "byteOffset": 728312,
      "byteLength": 1438896,
      "byteStride": 48,
      "target": 34962
    },
    {
      "buffer": 0,
      "byteOffset": 2167208,
      "byteLength": 1438896,
      "byteStride": 48,
      "target": 34962
    },
    {
      "buffer": 0,
      "byteOffset": 3606104,
      "byteLength": 181632,
      "byteStride": 48,
      "target": 34962
    },
    {
      "buffer": 0,
      "byteOffset": 3787736,
      "byteLength": 181632,
      "byteStride": 48,
      "target": 34962
    },
    {
      "buffer": 0,
      "byteOffset": 3969368,
      "byteLength": 2304,
      "byteStride": 48,
      "target": 34962
    }
  ],
  "samplers": [
    {
      "wrapS": 10497,
      "wrapT": 10497
    }
  ],
  "textures": [
    {
      "source": 0,
      "sampler": 0
    },
    {
      "source": 2,
      "sampler": 0
    },
    {
      "source": 3,
      "sampler": 0
    },
    {
      "source": 1,
      "sampler": 0
    },
    {
      "source": 4,
      "sampler": 0
    },
    {
      "source": 6,
      "sampler": 0
    },
    {
      "source": 7,
      "sampler": 0
    },
    {
      "source": 5,
      "sampler": 0
    }
  ],
  "images": [
    {
      "name": "Orion_Base_Color.jpg",
      "mimeType": "image/jpeg",
      "uri": "images/Orion_Base_Color.jpg"
    },
    {
      "name": "Orion_Metallic.jpg",
      "mimeType": "image/jpeg",
      "uri": "images/Orion_Metallic.jpg"
    },
    {
      "name": "Orion_Normal_OpenGL.jpg",
      "mimeType": "image/jpeg",
      "uri": "images/Orion_Normal_OpenGL.jpg"
    },
    {
      "name": "Orion_Mixed_AO.jpg",
      "mimeType": "image/jpeg",
      "uri": "images/Orion_Mixed_AO.jpg"
    },
    {
      "name": "SolarCells_1K_albedo.png",
      "mimeType": "image/png",
      "uri": "images/SolarCells_1K_albedo.png"
    },
    {
      "name": "SolarCells_1K_metallic.png",
      "mimeType": "image/png",
      "uri": "images/SolarCells_1K_metallic.png"
    },
    {
      "name": "SolarCells_1K_normal.png",
      "mimeType": "image/png",
      "uri": "images/SolarCells_1K_normal.png"
    },
    {
      "name": "SolarCells_1K_ao.png",
      "mimeType": "image/png",
      "uri": "images/SolarCells_1K_ao.png"
    }
  ],
  "buffers": [
    {
      "uri": "orion.bin",
      "byteLength": 3971672
    }
  ],
  "materials": [
    {
      "name": "Orion",
      "doubleSided": true,
      "pbrMetallicRoughness": {
        "baseColorTexture": {
          "index": 0
        },
        "metallicRoughnessTexture": {
          "index": 3
        }
      },
      "normalTexture": {
        "index": 1
      },
      "occlusionTexture": {
        "index": 2
      },
      "extensions": {
        "KHR_materials_specular": {
          "specularFactor": 0.5,
          "specularColorFactor": [
            0.5,
            0.5,
            0.5
          ]
        }
      }
    },
    {
      "name": "Solar-orion",
      "doubleSided": true,
      "pbrMetallicRoughness": {
        "roughnessFactor": 0.5168181910659327,
        "baseColorTexture": {
          "index": 4
        },
        "metallicRoughnessTexture": {
          "index": 7
        }
      },
      "normalTexture": {
        "index": 5
      },
      "occlusionTexture": {
        "index": 6
      },
      "extensions": {
        "KHR_materials_specular": {
          "specularFactor": 0.5,
          "specularColorFactor": [
            0.5,
            0.5,
            0.5
          ]
        }
      }
    }
  ],
  "meshes": [
    {
      "name": "GeometryNode_3_0",
      "primitives": [
        {
          "attributes": {
            "POSITION": 3,
            "NORMAL": 0,
            "TANGENT": 1,
            "TEXCOORD_0": 2
          },
          "mode": 4,
          "material": 0,
          "indices": 4
        }
      ]
    },
    {
      "name": "GeometryNode_3_1",
      "primitives": [
        {
          "attributes": {
            "POSITION": 14,
            "NORMAL": 11,
            "TANGENT": 12,
            "TEXCOORD_0": 13
          },
          "mode": 4,
          "material": 0,
          "indices": 5
        }
      ]
    },
    {
      "name": "GeometryNode_16_0",
      "primitives": [
        {
          "attributes": {
            "POSITION": 18,
            "NORMAL": 15,
            "TANGENT": 16,
            "TEXCOORD_0": 17
          },
          "mode": 4,
          "material": 0,
          "indices": 6
        }
      ]
    },
    {
      "name": "GeometryNode_16_1",
      "primitives": [
        {
          "attributes": {
            "POSITION": 22,
            "NORMAL": 19,
            "TANGENT": 20,
            "TEXCOORD_0": 21
          },
          "mode": 4,
          "material": 0,
          "indices": 7
        }
      ]
    },
    {
      "name": "GeometryNode_26_0",
      "primitives": [
        {
          "attributes": {
            "POSITION": 26,
            "NORMAL": 23,
            "TANGENT": 24,
            "TEXCOORD_0": 25
          },
          "mode": 4,
          "material": 0,
          "indices": 8
        }
      ]
    },
    {
      "name": "GeometryNode_26_1",
      "primitives": [
        {
          "attributes": {
            "POSITION": 30,
            "NORMAL": 27,
            "TANGENT": 28,
            "TEXCOORD_0": 29
          },
          "mode": 4,
          "material": 0,
          "indices": 9
        }
      ]
    },
    {
      "name": "GeometryNode_36",
      "primitives": [
        {
          "attributes": {
            "POSITION": 34,
            "NORMAL": 31,
            "TANGENT": 32,
            "TEXCOORD_0": 33
          },
          "mode": 4,
          "material": 1,
          "indices": 10
        }
      ]
    }
  ],
  "cameras": [
    {
      "name": "Camera_0",
      "type": "perspective",
      "perspective": {
        "znear": 3.3850000000000002,
        "zfar": 677,
        "yfov": 0.49187333254480586
      }
    }
  ],
  "nodes": [
    {
      "name": "oRION.obj.cleaner.materialmerger.gles",
      "children": [
        1
      ]
    },
    {
      "name": "Cylinder.486_Cylinder.053",
      "children": [
        2,
        5,
        8,
        11
      ]
    },
    {
      "name": "GeometryGroup_3",
      "children": [
        3,
        4
      ]
    },
    {
      "name": "GeometryNode_3_0",
      "mesh": 0
    },
    {
      "name": "GeometryNode_3_1",
      "mesh": 1
    },
    {
      "name": "GeometryGroup_16",
      "children": [
        6,
        7
      ]
    },
    {
      "name": "GeometryNode_16_0",
      "mesh": 2
    },
    {
      "name": "GeometryNode_16_1",
      "mesh": 3
    },
    {
      "name": "GeometryGroup_26",
      "children": [
        9,
        10
      ]
    },
    {
      "name": "GeometryNode_26_0",
      "mesh": 4
    },
    {
      "name": "GeometryNode_26_1",
      "mesh": 5
    },
    {
      "name": "GeometryNode_36",
      "mesh": 6
    },
    {
      "name": "Light_0",
      "extensions": {
        "KHR_lights_punctual": {
          "light": 0
        }
      }
    },
    {
      "name": "Light_1",
      "extensions": {
        "KHR_lights_punctual": {
          "light": 1
        }
      }
    },
    {
      "name": "Light_2",
      "extensions": {
        "KHR_lights_punctual": {
          "light": 2
        }
      }
    },
    {
      "name": "Camera_0",
      "camera": 0
    },
    {
      "name": "Sketchfab_model",
      "translation": [
        -9.274474143981934,
        -7.702014923095703,
        0.5548572540283203
      ],
      "rotation": [
        0.2558140066294511,
        0.44226452258681975,
        0.7431383773010487,
        -0.432095634002952
      ],
      "children": [
        0,
        12,
        13,
        14,
        15
      ]
    }
  ],
  "scenes": [
    {
      "name": "Scene",
      "nodes": [
        16
      ]
    }
  ],
  "extensionsUsed": [
    "KHR_lights_punctual",
    "KHR_materials_specular"
  ],
  "extensions": {
    "KHR_lights_punctual": {
      "lights": [
        {
          "type": "directional",
          "color": [
            0.7806122448979592,
            0.7985214493960848,
            1
          ],
          "intensity": 0.96,
          "range": 0.15531210838131387,
          "name": "Light_0"
        },
        {
          "type": "directional",
          "color": [
            1,
            0.8783319450229073,
            0.7091836734693877
          ],
          "range": 0.15531210838131387,
          "name": "Light_1"
        },
        {
          "type": "directional",
          "color": [
            0.423469387755102,
            0.7352665556018328,
            1
          ],
          "intensity": 0.12,
          "range": 0.15531210838131387,
          "name": "Light_2"
        }
      ]
    }
  }
}